HIERARCHY
ROOT Hips
{
    OFFSET   0.000000   0.000000   0.000000
    CHANNELS 6 Xposition Yposition Zposition Zrotation Xrotation Yrotation
    JOINT Chest
    {
        OFFSET   0.000000   8.007230   0.000000
        CHANNELS 3 Zrotation Xrotation Yrotation
        JOINT Chest2
        {
            OFFSET   0.000000  22.077100   0.000000
            CHANNELS 3 Zrotation Xrotation Yrotation
            JOINT Neck
            {
                OFFSET   0.000000  23.254800   0.000000
                CHANNELS 3 Zrotation Xrotation Yrotation
                JOINT Head
                {
                    OFFSET   0.000010  14.370000   1.956600
                    CHANNELS 3 Zrotation Xrotation Yrotation
                    End Site
                    {
                        OFFSET   0.000000  19.566000   0.000000
                    }
                }
            }
            JOINT LeftCollar
            {
                OFFSET   3.911900  19.017000  -0.467062
                CHANNELS 3 Zrotation Xrotation Yrotation
                JOINT LeftShoulder
                {
                    OFFSET  10.383700   0.000000   0.000000
                    CHANNELS 3 Zrotation Xrotation Yrotation
                    JOINT LeftElbow
                    {
                        OFFSET  26.662100   0.001193   0.000835
                        CHANNELS 3 Zrotation Xrotation Yrotation
                        JOINT LeftWrist
                        {
                            OFFSET  28.869000  -0.000058  -0.000075
                            CHANNELS 3 Zrotation Xrotation Yrotation
                            JOINT LeftFinger0
                            {
                                OFFSET   2.044660  -2.323460   3.252850
                                CHANNELS 3 Zrotation Xrotation Yrotation
                                JOINT LeftFinger01
                                {
                                    OFFSET   3.088130   0.000000   0.000000
                                    CHANNELS 3 Zrotation Xrotation Yrotation
                                    JOINT LeftFinger02
                                    {
                                        OFFSET   2.639450   0.000000   0.000000
                                        CHANNELS 3 Zrotation Xrotation Yrotation
                                        End Site
                                        {
                                            OFFSET   2.582190   0.000000   0.000000
                                        }
                                    }
                                }
                            }
                            JOINT LeftFinger1
                            {
                                OFFSET   8.364480   0.000000   3.252850
                                CHANNELS 3 Zrotation Xrotation Yrotation
                                JOINT LeftFinger11
                                {
                                    OFFSET   4.646920   0.000000   0.000000
                                    CHANNELS 3 Zrotation Xrotation Yrotation
                                    JOINT LeftFinger12
                                    {
                                        OFFSET   2.323460   0.000000   0.000000
                                        CHANNELS 3 Zrotation Xrotation Yrotation
                                        End Site
                                        {
                                            OFFSET   2.273050   0.000000   0.000000
                                        }
                                    }
                                }
                            }
                            JOINT LeftFinger2
                            {
                                OFFSET   8.364490   0.000016   1.078090
                                CHANNELS 3 Zrotation Xrotation Yrotation
                                JOINT LeftFinger21
                                {
                                    OFFSET   5.111620   0.000000   0.000000
                                    CHANNELS 3 Zrotation Xrotation Yrotation
                                    JOINT LeftFinger22
                                    {
                                        OFFSET   2.788150   0.000012   0.000000
                                        CHANNELS 3 Zrotation Xrotation Yrotation
                                        End Site
                                        {
                                            OFFSET   2.727660   0.000000   0.000000
                                        }
                                    }
                                }
                            }
                            JOINT LeftFinger3
                            {
                                OFFSET   7.899780   0.000014  -1.078090
                                CHANNELS 3 Zrotation Xrotation Yrotation
                                JOINT LeftFinger31
                                {
                                    OFFSET   4.646930   0.000000   0.000000
                                    CHANNELS 3 Zrotation Xrotation Yrotation
                                    JOINT LeftFinger32
                                    {
                                        OFFSET   2.323470   0.000000   0.000000
                                        CHANNELS 3 Zrotation Xrotation Yrotation
                                        End Site
                                        {
                                            OFFSET   2.273050   0.000000   0.000000
                                        }
                                    }
                                }
                            }
                            JOINT LeftFinger4
                            {
                                OFFSET   7.435090   0.000000  -3.252850
                                CHANNELS 3 Zrotation Xrotation Yrotation
                                JOINT LeftFinger41
                                {
                                    OFFSET   3.717550   0.000000   0.000000
                                    CHANNELS 3 Zrotation Xrotation Yrotation
                                    JOINT LeftFinger42
                                    {
                                        OFFSET   1.858770   0.000000   0.000000
                                        CHANNELS 3 Zrotation Xrotation Yrotation
                                        End Site
                                        {
                                            OFFSET   1.818440   0.000000   0.000000
                                        }
                                    }
                                }
                            }
                        }
                    }
                }
            }
            JOINT RightCollar
            {
                OFFSET  -3.911900  19.017000  -0.467063
                CHANNELS 3 Zrotation Xrotation Yrotation
                JOINT RightShoulder
                {
                    OFFSET -10.383700   0.000023   0.000000
                    CHANNELS 3 Zrotation Xrotation Yrotation
                    JOINT RightElbow
                    {
                        OFFSET -26.662100   0.001246   0.001011
                        CHANNELS 3 Zrotation Xrotation Yrotation
                        JOINT RightWrist
                        {
                            OFFSET -28.869000  -0.000026  -0.000078
                            CHANNELS 3 Zrotation Xrotation Yrotation
                            JOINT RightFinger0
                            {
                                OFFSET  -2.044660  -2.323490   3.252850
                                CHANNELS 3 Zrotation Xrotation Yrotation
                                JOINT RightFinger01
                                {
                                    OFFSET  -3.088130   0.000000   0.000000
                                    CHANNELS 3 Zrotation Xrotation Yrotation
                                    JOINT RightFinger02
                                    {
                                        OFFSET  -2.639460   0.000000   0.000000
                                        CHANNELS 3 Zrotation Xrotation Yrotation
                                        End Site
                                        {
                                            OFFSET  -2.582190   0.000000   0.000000
                                        }
                                    }
                                }
                            }
                            JOINT RightFinger1
                            {
                                OFFSET  -8.364480   0.000000   3.252850
                                CHANNELS 3 Zrotation Xrotation Yrotation
                                JOINT RightFinger11
                                {
                                    OFFSET  -4.646920   0.000000   0.000000
                                    CHANNELS 3 Zrotation Xrotation Yrotation
                                    JOINT RightFinger12
                                    {
                                        OFFSET  -2.323470   0.000000   0.000000
                                        CHANNELS 3 Zrotation Xrotation Yrotation
                                        End Site
                                        {
                                            OFFSET  -2.273050   0.000000   0.000000
                                        }
                                    }
                                }
                            }
                            JOINT RightFinger2
                            {
                                OFFSET  -8.364480   0.000000   1.078090
                                CHANNELS 3 Zrotation Xrotation Yrotation
                                JOINT RightFinger21
                                {
                                    OFFSET  -5.111620   0.000000   0.000000
                                    CHANNELS 3 Zrotation Xrotation Yrotation
                                    JOINT RightFinger22
                                    {
                                        OFFSET  -2.788160   0.000000   0.000000
                                        CHANNELS 3 Zrotation Xrotation Yrotation
                                        End Site
                                        {
                                            OFFSET  -2.727660   0.000000   0.000000
                                        }
                                    }
                                }
                            }
                            JOINT RightFinger3
                            {
                                OFFSET  -7.899780   0.000000  -1.078090
                                CHANNELS 3 Zrotation Xrotation Yrotation
                                JOINT RightFinger31
                                {
                                    OFFSET  -4.646930   0.000000   0.000000
                                    CHANNELS 3 Zrotation Xrotation Yrotation
                                    JOINT RightFinger32
                                    {
                                        OFFSET  -2.323470   0.000000   0.000000
                                        CHANNELS 3 Zrotation Xrotation Yrotation
                                        End Site
                                        {
                                            OFFSET  -2.273050   0.000000   0.000000
                                        }
                                    }
                                }
                            }
                            JOINT RightFinger4
                            {
                                OFFSET  -7.435090   0.000000  -3.252850
                                CHANNELS 3 Zrotation Xrotation Yrotation
                                JOINT RightFinger41
                                {
                                    OFFSET  -3.717550   0.000000   0.000000
                                    CHANNELS 3 Zrotation Xrotation Yrotation
                                    JOINT RightFinger42
                                    {
                                        OFFSET  -1.858760   0.000000   0.000000
                                        CHANNELS 3 Zrotation Xrotation Yrotation
                                        End Site
                                        {
                                            OFFSET  -1.818440   0.000000   0.000000
                                        }
                                    }
                                }
                            }
                        }
                    }
                }
            }
        }
    }
    JOINT LeftHip
    {
        OFFSET   9.783010   0.000000   0.000000
        CHANNELS 3 Zrotation Xrotation Yrotation
        JOINT LeftKnee
        {
            OFFSET   0.000073 -41.789100   0.001749
            CHANNELS 3 Zrotation Xrotation Yrotation
            JOINT LeftAnkle
            {
                OFFSET   0.000111 -41.133200  -0.000179
                CHANNELS 3 Zrotation Xrotation Yrotation
                JOINT LeftToe
                {
                    OFFSET   0.000000  -6.358960  14.674500
                    CHANNELS 3 Zrotation Xrotation Yrotation
                    End Site
                    {
                        OFFSET   0.000000   0.000000   3.913200
                    }
                }
            }
        }
    }
    JOINT RightHip
    {
        OFFSET  -9.783010   0.000000   0.000000
        CHANNELS 3 Zrotation Xrotation Yrotation
        JOINT RightKnee
        {
            OFFSET   0.000424 -41.789200   0.005205
            CHANNELS 3 Zrotation Xrotation Yrotation
            JOINT RightAnkle
            {
                OFFSET   0.000000 -41.133200  -0.000155
                CHANNELS 3 Zrotation Xrotation Yrotation
                JOINT RightToe
                {
                    OFFSET   0.000000  -6.358960  14.674500
                    CHANNELS 3 Zrotation Xrotation Yrotation
                    End Site
                    {
                        OFFSET   0.000000   0.000000   3.913200
                    }
                }
            }
        }
    }
}
MOTION
Frames: 4
Frame Time:   0.016667
 -5.776420  89.279100   1.753260  -4.611400 -18.151600  -2.932260   1.763790   9.886640   1.651140   3.308370  19.818600   3.057560   2.053720   2.151860  -0.078037   3.387350   4.346850  -1.158350  -5.204230  -5.597390  -1.579570 -72.541500  26.721500  -5.502250  -2.153430  -7.187870 -14.402200  10.216300  -4.712360  -0.634851  40.794600  25.954100 -56.152000 -23.373800   0.000000   0.000625  -6.686900  -0.007714   0.002327 -23.717300   3.792590  -8.565530 -19.637500   0.004753   0.003295 -13.746200   0.004268  -0.000730 -25.952600  -0.345683   0.710156 -25.954700   0.004444  -0.004246 -17.285800   0.005446  -0.003730 -24.721400  -0.330396   0.717439 -24.723500  -0.001132  -0.001136 -16.465800   0.001910   0.002275 -24.284700  -0.324853   0.720007 -36.430200   0.001628  -0.001833 -24.262500   0.002472  -0.000151   8.774710  -6.191730  10.802600  39.433200  12.451400  69.144500 -36.694500 -24.269700  54.256200 -17.913600  -9.047330  25.025500 -57.736200  36.486600  65.347800  -7.947380   0.002475   0.000482  -8.973670   0.000112  -0.001294   2.972410   0.311813   6.014080   2.445080  -0.000778   0.000082   1.711600  -0.003868   0.000828   5.580900   0.586962   5.993660   5.609870  -0.001910  -0.002237   3.736160  -0.001198  -0.001466  68.551700  -5.444040  -2.134490  68.653300  -0.001563  -0.001713  51.490000  -0.001319   0.000301  83.841300  -9.944970  -1.067370 110.000000  -0.002938   0.000000  80.000000  -0.000582   0.000000   8.350710  17.805500   4.098850   2.383710   5.616270   7.973360  -5.760810  -4.740540   0.845134   0.000000   0.000000   0.000000   7.681050  19.139300  -2.612070   0.031281   2.937850 -10.572800   0.367674  -5.220990   3.962970   0.000000   0.000000   0.000000
 -5.820800  89.268900   1.789490  -4.586660 -18.207000  -2.929880   1.703330   9.885740   1.726520   3.171060  19.815300   3.222760   2.205830   2.082430  -0.078435   3.636710   4.204000  -1.277010  -5.200020  -5.528000  -1.596200 -72.418700  26.828100  -5.665460  -2.010980  -7.226710 -14.430700  10.361000  -4.615500  -0.611687  40.697800  25.559200 -55.682000 -23.252900   0.000000   0.000659  -6.626430  -0.007810   0.002345 -23.680200   3.803730  -8.601630 -19.608900   0.004728   0.003299 -13.726200   0.004268  -0.000696 -25.934500  -0.321370   0.660287 -25.936300   0.004514  -0.004248 -17.273600   0.005541  -0.003738 -24.690800  -0.306832   0.667044 -24.692600  -0.001132  -0.001162 -16.445300   0.001968   0.002280 -24.262500  -0.301829   0.669411 -36.396400   0.001578  -0.001812 -24.240000   0.002425  -0.000161   8.704770  -6.103730  10.624400  39.581000  12.336900  68.904000 -36.593900 -24.177900  54.393600 -18.188900  -8.987810  24.892100 -57.613900  36.325700  64.840600  -7.752510   0.002462   0.000423  -8.876250   0.000211  -0.001374   2.792590   0.277818   5.682850   2.295870  -0.000668  -0.000000   1.607120  -0.003303   0.000906   5.438040   0.540915   5.663880   5.464470  -0.002194  -0.002629   3.639320  -0.001388  -0.001749  68.502500  -5.448200  -2.141540  68.604500  -0.002074  -0.002323  51.453400  -0.001791   0.000085  83.739700  -9.945000  -1.084860 110.000000  -0.002893   0.000000  80.000000  -0.000558  -0.000000   8.329240  17.767200   3.939470   2.373540   5.838200   8.064290  -5.756510  -4.859820   0.888006   0.000000   0.000000   0.000000   7.674900  19.164900  -2.645520   0.029926   2.984210 -10.573100   0.366955  -5.251880   3.980360   0.000000   0.000000   0.000000
 -5.857120  89.261700   1.814830  -4.581900 -18.261600  -2.919300   1.659660   9.889510   1.790410   3.069800  19.822700   3.361590   2.310400   1.988720  -0.078366   3.807270   4.013370  -1.420430  -5.186940  -5.453940  -1.631760 -72.382900  26.704200  -5.766230  -1.866810  -7.125850 -14.524500  10.584300  -4.745290  -0.588643  40.601400  25.055000 -55.195700 -23.067600   0.000000   0.000682  -6.533760  -0.007896   0.002367 -23.700500   3.806780  -8.597020 -19.625700   0.004699   0.003301 -13.738000   0.004262  -0.000665 -25.972300  -0.267570   0.548795 -25.974000   0.004581  -0.004251 -17.298700   0.005636  -0.003744 -24.725400  -0.255404   0.554569 -24.727200  -0.001137  -0.001181 -16.468300   0.002025   0.002284 -24.324500  -0.251717   0.556509 -36.489400   0.001524  -0.001792 -24.301900   0.002382  -0.000168   8.622410  -6.012850  10.414900  39.706400  12.348900  68.781400 -36.625200 -24.209400  54.383100 -18.273500  -9.177700  24.719500 -57.624100  36.235700  64.473900  -7.750570   0.002387   0.000398  -8.875290   0.000303  -0.001460   2.740450   0.265787   5.539440   2.252720  -0.000581  -0.000077   1.576890  -0.002712   0.000975   5.353450   0.519102   5.521520   5.378450  -0.002467  -0.003031   3.582030  -0.001569  -0.002047  68.491500  -5.449020  -2.143210  68.593500  -0.002564  -0.002940  51.445100  -0.002264  -0.000117  83.686300  -9.945050  -1.094190 110.000000  -0.002837   0.000000  80.000000  -0.000531   0.000000   8.334710  17.723200   3.838710   2.368510   6.042200   8.065910  -5.747470  -4.970180   0.945767  -0.000000   0.000000   0.000000   7.678750  19.200100  -2.636830   0.041172   3.023120 -10.604400   0.371742  -5.280600   3.980170  -0.000000   0.000000   0.000000
 -5.874890  89.258800   1.834430  -4.576010 -18.315800  -2.894130   1.634080   9.896600   1.835940   3.009020  19.837800   3.459250   2.358620   1.893160  -0.077915   3.886430   3.819670  -1.557890  -5.176950  -5.389230  -1.655310 -72.382400  26.492800  -5.809450  -1.725870  -6.977340 -14.680900  10.811800  -5.035680  -0.562188  40.542500  24.729100 -54.910500 -22.947100   0.000000   0.000705  -6.473540  -0.007983   0.002391 -23.757800   3.808170  -8.580630 -19.672200   0.004670   0.003304 -13.770600   0.004254  -0.000634 -26.059900  -0.230613   0.471963 -26.062100   0.004649  -0.004255 -17.357300   0.005729  -0.003749 -24.802200  -0.220154   0.477079 -24.804300  -0.001141  -0.001199 -16.519700   0.002082   0.002288 -24.453600  -0.217398   0.478724 -36.683600   0.001471  -0.001771 -24.431300   0.002336  -0.000175   8.542610  -5.930150  10.217600  39.745300  12.403200  68.666000 -36.676400 -24.293000  54.386500 -18.294300  -9.464420  24.545600 -57.634900  36.190700  64.287500  -7.748640   0.002236   0.000378  -8.874330   0.000378  -0.001547   2.733060   0.264074   5.505530   2.246550  -0.000491  -0.000139   1.572570  -0.002104   0.001039   5.314120   0.512466   5.488110   5.338710  -0.002694  -0.003437   3.555570  -0.001721  -0.002347  68.489900  -5.449140  -2.143450  68.591900  -0.003033  -0.003560  51.443900  -0.002740  -0.000306  83.667600  -9.945110  -1.097510 110.000000  -0.002780  -0.000000  80.000000  -0.000506   0.000000   8.348840  17.699300   3.774180   2.367080   6.204620   8.058660  -5.734910  -5.058270   0.983444   0.000000   0.000000  -0.000000   7.682520  19.241700  -2.607410   0.059669   3.051380 -10.669500   0.385100  -5.307330   3.977720  -0.000000   0.000000   0.000000
